<svg xmlns="http://www.w3.org/2000/svg" xmlns:xlink="http://www.w3.org/1999/xlink" viewBox="0 0 120 122.69"><defs><style>.cls-1{fill:none;}.cls-2{fill:#f1f1ef;}.cls-3{clip-path:url(#clip-path);}.cls-4{fill:#727272;}</style><clipPath id="clip-path" transform="translate(0 0)"><path class="cls-1" d="M0,60A60,60,0,1,0,60,0,60,60,0,0,0,0,60"/></clipPath></defs><title>default-user</title><g id="Layer_2" data-name="Layer 2"><g id="Layer_1-2" data-name="Layer 1"><path class="cls-2" d="M120,60A60,60,0,1,1,60,0a60,60,0,0,1,60,60" transform="translate(0 0)"/><g class="cls-3"><path class="cls-4" d="M75.35,17,63.41,81.77l8.53,1.71C90,70.26,97.73,17,75.35,17" transform="translate(0 0)"/><path class="cls-4" d="M75.35,17c-3-1.81-18.74-6.41-30.7,0-14.71,7.89-27.57,36.1-6.82,64.8,0,0,15.35-1.71,15.35-1.71Z" transform="translate(0 0)"/><path class="cls-4" d="M72,73.81h-.09v-4H48.06v4c0,3.9,0,8.14-3.41,10.7v38.19h30.7V84.45C72,81.88,72,77.68,72,73.81" transform="translate(0 0)"/><path class="cls-4" d="M60,105.64a39.15,39.15,0,0,1-10.23-1.33v18.38H73.64V103.19A37.18,37.18,0,0,1,60,105.64" transform="translate(0 0)"/><path class="cls-4" d="M73.64,92a9.39,9.39,0,0,0,1.7.31V84.45C72,81.88,72,77.68,72,73.81V69.73l-18.85.1-5.12,1.71C51.47,75.37,61.92,88.8,73.64,92" transform="translate(0 0)"/><path class="cls-4" d="M83.87,47.66c0,13.66-13.58,30.7-23.87,30.7s-23.87-17-23.87-30.7S46.82,28.9,60,28.9,83.87,34,83.87,47.66" transform="translate(0 0)"/><path class="cls-4" d="M63.41,20.38c-1,0-4.07,1.08-6.61,2l-.21-.32-1,.75c-1.41.54-2.45,1-2.45,1l.4.66C47.11,29.55,32.34,41.22,31,42.55,29.31,44.25,41.24,87.76,41.24,63c0-20.68,11.49-24.77,22.17-27.29,4.83-1.14,6.25-4,6.82-6.82s-5.11-8.53-6.82-8.53" transform="translate(0 0)"/><path class="cls-4" d="M68.53,30.61c3.13,11.23,9.38,16.31,15.24,17.8,3.21.82,1.81-9.27,1.81-9.27S81,27.48,80.46,27.2,75.35,17,75.35,17L65.12,25.49Z" transform="translate(0 0)"/><path class="cls-4" d="M46.53,82.46c-1.6,2.6-4.85,4.42-11.54,4.42h-.57a18.76,18.76,0,0,0-18.76,18.76v11.94a5.11,5.11,0,0,0,5.11,5.11h35Z" transform="translate(0 0)"/><path class="cls-4" d="M73.48,82.46c1.6,2.6,4.85,4.42,11.54,4.42h.57a18.76,18.76,0,0,1,18.76,18.76v11.94a5.12,5.12,0,0,1-5.12,5.11h-35Z" transform="translate(0 0)"/><path class="cls-4" d="M34.42,109.05a5.12,5.12,0,1,1-5.12,5.12,5.12,5.12,0,0,1,5.12-5.12" transform="translate(0 0)"/><path class="cls-4" d="M92,120l-2.11-1.45c1.87-2.73,2.95-6.81,2.95-11.21,0-7.63-3.32-14.07-7.25-14.07s-7.25,6.44-7.25,14.07c0,4.4,1.08,8.49,2.95,11.21L79.17,120c-2.16-3.14-3.4-7.76-3.4-12.66,0-9.32,4.31-16.63,9.8-16.63s9.8,7.3,9.8,16.63c0,4.91-1.24,9.52-3.4,12.66" transform="translate(0 0)"/><path class="cls-4" d="M80.46,117.58a1.71,1.71,0,1,1-1.71,1.71,1.71,1.71,0,0,1,1.71-1.71" transform="translate(0 0)"/><path class="cls-4" d="M90.7,117.58A1.71,1.71,0,1,1,89,119.28a1.71,1.71,0,0,1,1.71-1.71" transform="translate(0 0)"/><path class="cls-4" d="M34.42,112a1.28,1.28,0,0,1-1.28-1.28c0-22.1,10.45-28.16,10.89-28.4a1.28,1.28,0,0,1,1.25,2.23c-.12.07-9.58,5.75-9.58,26.17A1.28,1.28,0,0,1,34.42,112" transform="translate(0 0)"/><path class="cls-4" d="M34.42,111.47a2.7,2.7,0,1,1-2.7,2.7,2.7,2.7,0,0,1,2.7-2.7" transform="translate(0 0)"/><path class="cls-4" d="M85.58,93.28a1.28,1.28,0,0,1-1.21-.85,9.79,9.79,0,0,0-2.94-4.49,1.28,1.28,0,0,1,1.47-2.1,12.1,12.1,0,0,1,3.88,5.74A1.28,1.28,0,0,1,86,93.21a1.3,1.3,0,0,1-.43.07" transform="translate(0 0)"/><path class="cls-4" d="M81.33,46.45c2.79-.64,4.62.73,4.62,3.41,0,3.55-3.75,12.26-7.7,6.82s3.08-10.23,3.08-10.23" transform="translate(0 0)"/></g></g></g></svg>