<svg xmlns="http://www.w3.org/2000/svg" viewBox="0 0 344.44 113.22"><defs><style>.cls-1{fill:#1d3557;}.cls-2{fill:#fff;}</style></defs><title>Asset 1</title><g id="Layer_2" data-name="Layer 2"><g id="Layer_1-2" data-name="Layer 1"><path class="cls-1" d="M130.71.31,80.63.14C60.4.07,39.85-1.87,22.56,11-3.67,30.6-7.67,69,13.94,93.54a56.7,56.7,0,0,0,41.73,18.8c5.57.08,11.15,0,16.72.06l58.15.2a5.49,5.49,0,0,0,4.37-1.89,5.57,5.57,0,0,0,1.63-4.11L136.69,19q0-6.33,0-12.65A6.09,6.09,0,0,0,130.71.31ZM34,94.53C8.3,79.78,4.4,43.62,26.08,23.6,34.55,15.77,45.54,12.06,57,12.06c6.74,0,13.49,0,20.23.07l47.51.16q-.06,40.82-.13,81.64v6.63l-40.19-.14C68.06,100.38,48.64,103,34,94.53Z"/><path class="cls-1" d="M103.22,48.17l-19-.06H82.42l0-13.86q0-3.48,0-7a1.45,1.45,0,0,0-1.42-1.43l-11.82,0a1.45,1.45,0,0,0-1.43,1.42l-.07,19q0,.89,0,1.78L53.88,48l-7,0a1.45,1.45,0,0,0-1.43,1.42l0,11.82a1.43,1.43,0,0,0,1.42,1.43l19,.07h1.78q0,6.93,0,13.86,0,3.48,0,7A1.45,1.45,0,0,0,69,85l11.82,0a1.43,1.43,0,0,0,1.43-1.42q0-9.51.07-19,0-.89,0-1.78l13.86,0,7,0a1.45,1.45,0,0,0,1.43-1.42q0-5.91,0-11.82A1.45,1.45,0,0,0,103.22,48.17Z"/><path class="cls-1" d="M341.72,35.27A51.57,51.57,0,0,0,319.39,7.81c-11.3-6.67-23.32-7-35.88-7L239.45.62c-28.34-.1-56.72-.69-85.05-.29h-1.65a6.09,6.09,0,0,0-6,6l-.3,87.62q0,6.33,0,12.65a5.49,5.49,0,0,0,1.92,4.39,5.58,5.58,0,0,0,4.08,1.61l73.79.25,48.45.17c9,0,18.47.74,27.42-.68,24.54-3.88,42-25.85,42.32-50.24C344.5,53.07,344.73,43.93,341.72,35.27Z"/><path class="cls-2" d="M179.79,76.28Q174.7,71.6,174.7,62.1V34.5a1.72,1.72,0,0,1,.44-1.22,1.54,1.54,0,0,1,1.19-.47h6.24a1.63,1.63,0,0,1,1.7,1.7V62.1q0,5.36,2.54,8.07T194,72.89q4.68,0,7.22-2.71t2.54-8.07V34.5a1.63,1.63,0,0,1,1.7-1.7h6.24a1.54,1.54,0,0,1,1.19.47,1.72,1.72,0,0,1,.44,1.22V62.1q0,9.5-5.05,14.18T194.1,81Q184.88,81,179.79,76.28Z"/><path class="cls-2" d="M224,79.8a1.57,1.57,0,0,1-.48-1.15V34.5a1.72,1.72,0,0,1,.44-1.22,1.54,1.54,0,0,1,1.19-.47h6.24a1.63,1.63,0,0,1,1.7,1.7V51.93h19.8V34.5a1.65,1.65,0,0,1,.47-1.22,1.57,1.57,0,0,1,1.15-.47h6.31a1.55,1.55,0,0,1,1.19.47,1.72,1.72,0,0,1,.44,1.22V78.65A1.63,1.63,0,0,1,262,79.8a1.54,1.54,0,0,1-1.19.47h-6.31a1.62,1.62,0,0,1-1.63-1.63V60.54H233.1V78.65a1.57,1.57,0,0,1-.48,1.15,1.65,1.65,0,0,1-1.22.47h-6.24A1.56,1.56,0,0,1,224,79.8Z"/><path class="cls-2" d="M276.88,76.18q-5.12-4.78-5.46-13.6-.07-1.83-.07-6t.07-6.1q.34-8.68,5.49-13.53t14.45-4.85a24.86,24.86,0,0,1,10.51,2.07,16.73,16.73,0,0,1,7,5.66,14.74,14.74,0,0,1,2.61,8.07v.14A1.15,1.15,0,0,1,311,49a1.48,1.48,0,0,1-1,.37h-6.58a1.75,1.75,0,0,1-1.22-.37,2.85,2.85,0,0,1-.68-1.32q-1-4.2-3.53-5.94A11.51,11.51,0,0,0,291.36,40q-9.7,0-10.11,10.85-.07,1.83-.07,5.63t.07,5.77q.41,10.85,10.11,10.85A11.54,11.54,0,0,0,298,71.36q2.54-1.73,3.56-5.93a2.86,2.86,0,0,1,.68-1.32,1.76,1.76,0,0,1,1.22-.37H310a1.5,1.5,0,0,1,1.05.41,1.15,1.15,0,0,1,.37,1,14.73,14.73,0,0,1-2.61,8.07,16.71,16.71,0,0,1-7,5.66A24.84,24.84,0,0,1,291.36,81Q282,81,276.88,76.18Z"/></g></g></svg>