<svg xmlns="http://www.w3.org/2000/svg" xmlns:xlink="http://www.w3.org/1999/xlink" viewBox="0 0 100 102.25"><defs><style>.cls-1{fill:none;}.cls-2{fill:#f1f1ef;}.cls-3{clip-path:url(#clip-path);}.cls-4{fill:#80362d;}.cls-5{fill:#ffd7a3;}.cls-6{fill:#545465;}.cls-7{fill:#fdc88e;}.cls-8{fill:#ffe1b2;}.cls-9{fill:#e4ebf0;}.cls-10{fill:#d0d7dc;}.cls-11{fill:#b2b9bf;}</style><clipPath id="clip-path" transform="translate(0 0)"><path class="cls-1" d="M0,50A50,50,0,1,0,50,0,50,50,0,0,0,0,50"/></clipPath></defs><title>patient-name</title><g id="Layer_2" data-name="Layer 2"><g id="Layer_1-2" data-name="Layer 1"><path class="cls-2" d="M100,50A50,50,0,1,1,50,0a50,50,0,0,1,50,50" transform="translate(0 0)"/><g class="cls-3"><path class="cls-4" d="M62.79,14.14l-9.95,54,7.11,1.42c15-11,21.49-55.42,2.84-55.42" transform="translate(0 0)"/><path class="cls-4" d="M62.79,14.14c-2.49-1.51-15.61-5.34-25.58,0-12.26,6.57-23,30.08-5.68,54,0,0,12.79-1.42,12.79-1.42Z" transform="translate(0 0)"/><path class="cls-5" d="M60,61.51h-.08V58.19H40.05v3.32c0,3.25,0,6.78-2.84,8.92v31.82H62.79V70.37C60,68.23,60,64.73,60,61.51" transform="translate(0 0)"/><path class="cls-6" d="M50,88a32.63,32.63,0,0,1-8.53-1.11v15.32H61.37V86A31,31,0,0,1,50,88" transform="translate(0 0)"/><path class="cls-7" d="M61.37,76.67a7.73,7.73,0,0,0,1.42.25V70.37C60,68.23,60,64.73,60,61.51v-3.4l-15.71.08-4.26,1.42C42.89,62.81,51.6,74,61.37,76.67" transform="translate(0 0)"/><path class="cls-8" d="M69.9,39.72C69.9,51.1,58.58,65.3,50,65.3S30.11,51.1,30.11,39.72,39,24.09,50,24.09s19.9,4.25,19.9,15.63" transform="translate(0 0)"/><path class="cls-4" d="M52.84,17a29.15,29.15,0,0,0-5.51,1.68l-.18-.26-.8.63c-1.18.45-2,.79-2,.79l.33.55c-5.39,4.25-17.7,14-18.81,15.08-1.42,1.42,8.53,37.68,8.53,17.05,0-17.23,9.57-20.64,18.47-22.74,4-.95,5.21-3.32,5.68-5.68S54.26,17,52.84,17" transform="translate(0 0)"/><path class="cls-4" d="M57.11,25.51c2.6,9.36,7.82,13.59,12.7,14.83,2.68.68,1.51-7.73,1.51-7.73s-3.79-9.71-4.26-9.95-4.26-8.53-4.26-8.53l-8.53,7.11Z" transform="translate(0 0)"/><path class="cls-9" d="M38.77,68.72c-1.33,2.16-4,3.68-9.61,3.68h-.47A15.63,15.63,0,0,0,13.05,88V98a4.26,4.26,0,0,0,4.26,4.26H46.48Z" transform="translate(0 0)"/><path class="cls-9" d="M61.23,68.72c1.33,2.16,4,3.68,9.61,3.68h.47A15.63,15.63,0,0,1,86.95,88V98a4.26,4.26,0,0,1-4.26,4.26H53.52Z" transform="translate(0 0)"/><path class="cls-10" d="M28.68,90.88a4.26,4.26,0,1,1-4.26,4.26,4.26,4.26,0,0,1,4.26-4.26" transform="translate(0 0)"/><path class="cls-10" d="M76.66,100,74.9,98.8a16.94,16.94,0,0,0,2.46-9.34c0-6.35-2.77-11.72-6-11.72s-6,5.37-6,11.72a17,17,0,0,0,2.46,9.34L66,100a19.1,19.1,0,0,1-2.83-10.55c0-7.77,3.59-13.86,8.17-13.86s8.17,6.09,8.17,13.86A19.1,19.1,0,0,1,76.66,100" transform="translate(0 0)"/><path class="cls-6" d="M67.05,98a1.42,1.42,0,1,1-1.42,1.42A1.42,1.42,0,0,1,67.05,98" transform="translate(0 0)"/><path class="cls-6" d="M75.58,98a1.42,1.42,0,1,1-1.42,1.42A1.42,1.42,0,0,1,75.58,98" transform="translate(0 0)"/><path class="cls-10" d="M28.68,93.36a1.07,1.07,0,0,1-1.07-1.07c0-18.41,8.7-23.46,9.07-23.67a1.07,1.07,0,0,1,1,1.86c-.1.06-8,4.79-8,21.81a1.07,1.07,0,0,1-1.06,1.07" transform="translate(0 0)"/><path class="cls-11" d="M28.68,92.89a2.25,2.25,0,1,1-2.25,2.25,2.25,2.25,0,0,1,2.25-2.25" transform="translate(0 0)"/><path class="cls-10" d="M71.32,77.73a1.07,1.07,0,0,1-1-.71,8.16,8.16,0,0,0-2.45-3.74,1.07,1.07,0,1,1,1.22-1.75,10.08,10.08,0,0,1,3.24,4.78,1.07,1.07,0,0,1-.65,1.36,1.08,1.08,0,0,1-.35.06" transform="translate(0 0)"/><path class="cls-8" d="M67.78,38.71c2.33-.53,3.85.61,3.85,2.84,0,3-3.13,10.21-6.41,5.68s2.57-8.53,2.57-8.53" transform="translate(0 0)"/></g></g></g></svg>