<svg xmlns="http://www.w3.org/2000/svg" viewBox="0 0 262.4 201.35"><defs><style>.cls-1{fill:#fff;}.cls-10,.cls-11,.cls-2,.cls-9{fill:none;stroke-miterlimit:10;}.cls-11,.cls-2,.cls-9{stroke:#1d3557;}.cls-3{font-size:19px;}.cls-3,.cls-6{font-family:Lato-Bold, Lato;font-weight:700;}.cls-4{letter-spacing:0.08em;}.cls-5{letter-spacing:0.08em;}.cls-6{font-size:19px;}.cls-7{letter-spacing:0.08em;}.cls-8{letter-spacing:0.08em;}.cls-9{stroke-width:2px;}.cls-10{stroke:#bc0661;}.cls-10,.cls-11{stroke-width:3px;}</style></defs><title>upload-image</title><g id="Layer_2" data-name="Layer 2"><g id="Layer_1-2" data-name="Layer 1"><path class="cls-1" d="M170.48,115.88,68.37,138.61a10.63,10.63,0,0,1-12.69-8.07L35.34,39.18a10.63,10.63,0,0,1,8.07-12.69L145.52,3.76a10.63,10.63,0,0,1,12.69,8.07l20.34,91.36a10.63,10.63,0,0,1-8.07,12.69"/><path class="cls-2" d="M170.48,115.88,68.37,138.61a10.63,10.63,0,0,1-12.69-8.07L35.34,39.18a10.63,10.63,0,0,1,8.07-12.69L145.52,3.76a10.63,10.63,0,0,1,12.69,8.07l20.34,91.36A10.63,10.63,0,0,1,170.48,115.88Z"/><text class="cls-3" transform="matrix(0.98, -0.18, 0.18, 0.98, 83.83, 60.56)"><tspan class="cls-4">.</tspan><tspan class="cls-5" x="6.01" y="0">p</tspan><tspan class="cls-4" x="18.33" y="0">d</tspan><tspan x="30.61" y="0">f</tspan></text><path class="cls-1" d="M195.35,199.93,99.79,157.36a10.63,10.63,0,0,1-5.38-14l38.09-85.5a10.63,10.63,0,0,1,14-5.39L242.1,95a10.63,10.63,0,0,1,5.38,14l-38.09,85.5a10.63,10.63,0,0,1-14,5.38"/><path class="cls-2" d="M195.35,199.93,99.79,157.36a10.63,10.63,0,0,1-5.38-14l38.09-85.5a10.63,10.63,0,0,1,14-5.39L242.1,95a10.63,10.63,0,0,1,5.38,14l-38.09,85.5A10.63,10.63,0,0,1,195.35,199.93Z"/><text class="cls-6" transform="translate(151.49 118.53) rotate(24.88)"><tspan class="cls-7">.j</tspan><tspan class="cls-8" x="12.34" y="0">p</tspan><tspan x="24.65" y="0">g</tspan></text><circle class="cls-9" cx="251.36" cy="72.57" r="10.04"/><path class="cls-1" d="M42.22,178.27a7.67,7.67,0,1,1-7.67-7.67,7.67,7.67,0,0,1,7.67,7.67"/><circle class="cls-10" cx="34.55" cy="178.27" r="7.67"/><polygon class="cls-11" points="6.19 118.41 1.88 129.24 10.27 133.96 15.29 126.18 6.19 118.41"/><polygon class="cls-1" points="202.2 2.5 197.37 14.63 206.76 19.91 212.39 11.21 202.2 2.5"/><polygon class="cls-10" points="202.2 2.5 197.37 14.63 206.76 19.91 212.39 11.21 202.2 2.5"/><path class="cls-1" d="M239,33.78s10.67,15.75-7.33,21.62"/><path class="cls-10" d="M239,33.78s10.67,15.75-7.33,21.62"/></g></g></svg>