<svg xmlns="http://www.w3.org/2000/svg" viewBox="0 0 20.17 18.21"><g><path style="fill:none;stroke:%231a6fb0;stroke-miterlimit:10;stroke-width:0.25px;" d="M18.78,3.77H15.3V3.64A3.53,3.53,0,0,0,11.77.13H8.41A3.53,3.53,0,0,0,4.88,3.64v.13H1.4A1.28,1.28,0,0,0,.13,5.06V16.81A1.28,1.28,0,0,0,1.4,18.09H18.78A1.27,1.27,0,0,0,20,16.81V5.06A1.28,1.28,0,0,0,18.78,3.77ZM6.62,3.64a1.8,1.8,0,0,1,1.79-1.8h3.36a1.8,1.8,0,0,1,1.78,1.8v.13H6.62Z"/><path style="fill:none;stroke:%231a6fb0;stroke-miterlimit:10;stroke-width:0.25px;" d="M10.09,5a6,6,0,1,0,6,6A6,6,0,0,0,10.09,5Zm2.54,7H11.12v1.5a1,1,0,1,1-2.07,0V12H7.55a1,1,0,1,1,0-2.09h1.5V8.39a1,1,0,1,1,2.07,0v1.5h1.51a1,1,0,1,1,0,2.09Z"/></g></svg>