<svg xmlns="http://www.w3.org/2000/svg" viewBox="0 0 16.95 16.29"><defs><style>.cls-1{fill:#d8dce1;}.cls-2{fill:#1d4182;}.cls-3{fill:#fff;}.cls-4{fill:#5c546a;}</style></defs><title>calendar</title><g id="Layer_2" data-name="Layer 2"><g id="Layer_1-2" data-name="Layer 1"><path class="cls-1" d="M0,4.1V15a1.33,1.33,0,0,0,1.32,1.32h14.3A1.33,1.33,0,0,0,16.95,15V4.1Z"/><path class="cls-2" d="M15.62.4H1.33A1.33,1.33,0,0,0,0,1.72V4.11H16.95V1.72A1.33,1.33,0,0,0,15.62.4M2.12,3a.79.79,0,1,1,.79-.79A.79.79,0,0,1,2.12,3M14.83,3a.79.79,0,1,1,.79-.79.79.79,0,0,1-.79.79"/><path class="cls-3" d="M8.47,6.49A1.06,1.06,0,1,0,9.53,7.55,1.06,1.06,0,0,0,8.47,6.49"/><path class="cls-3" d="M5.83,6.49A1.06,1.06,0,1,0,6.89,7.55,1.06,1.06,0,0,0,5.83,6.49"/><path class="cls-3" d="M11.12,6.49a1.06,1.06,0,1,0,1.06,1.06,1.06,1.06,0,0,0-1.06-1.06"/><path class="cls-3" d="M13.77,8.61a1.06,1.06,0,1,0-1.06-1.06,1.06,1.06,0,0,0,1.06,1.06"/><path class="cls-3" d="M8.47,9.14a1.06,1.06,0,1,0,1.06,1.06A1.06,1.06,0,0,0,8.47,9.14"/><path class="cls-3" d="M5.83,9.14a1.06,1.06,0,1,0,1.06,1.06A1.06,1.06,0,0,0,5.83,9.14"/><path class="cls-3" d="M3.18,9.14a1.06,1.06,0,1,0,1.06,1.06A1.06,1.06,0,0,0,3.18,9.14"/><path class="cls-3" d="M13.77,9.14a1.06,1.06,0,1,0,1.06,1.06,1.06,1.06,0,0,0-1.06-1.06"/><path class="cls-3" d="M5.83,11.78a1.06,1.06,0,1,0,1.06,1.06,1.06,1.06,0,0,0-1.06-1.06"/><path class="cls-3" d="M3.18,11.78a1.06,1.06,0,1,0,1.06,1.06,1.06,1.06,0,0,0-1.06-1.06"/><path class="cls-3" d="M11.12,11.78a1.06,1.06,0,1,0,1.06,1.06,1.06,1.06,0,0,0-1.06-1.06"/><path class="cls-3" d="M13.77,11.78a1.06,1.06,0,1,0,1.06,1.06,1.06,1.06,0,0,0-1.06-1.06"/><path class="cls-4" d="M2.12,2.65a.4.4,0,0,1-.4-.4V.4a.4.4,0,0,1,.79,0V2.25a.4.4,0,0,1-.4.4"/><path class="cls-4" d="M14.83,2.65a.4.4,0,0,1-.4-.4V.4a.4.4,0,0,1,.79,0V2.25a.4.4,0,0,1-.4.4"/><path class="cls-2" d="M3.18,6.49A1.06,1.06,0,1,1,2.12,7.55,1.06,1.06,0,0,1,3.18,6.49"/><path class="cls-2" d="M8.47,11.78a1.06,1.06,0,1,1-1.06,1.06,1.06,1.06,0,0,1,1.06-1.06"/><path class="cls-2" d="M11.12,9.19a1.06,1.06,0,1,1-1.06,1.06,1.06,1.06,0,0,1,1.06-1.06"/></g></g></svg>