<svg xmlns="http://www.w3.org/2000/svg" viewBox="0 0 24.59 31.27"><defs><style>.cls-1{fill:#22a7ff;}.cls-2{fill:#0094fd;}.cls-3{fill:#60b8ff;}.cls-4{fill:#ffe55a;}.cls-5{fill:#ffd500;}.cls-6{fill:#fbc700;}.cls-7{fill:#e9b900;}.cls-8{fill:#ff8088;}.cls-9{fill:#ff646f;}.cls-10{fill:#ff4755;}.cls-11{fill:#fc2b3a;}</style></defs><title>tablet</title><g id="Layer_2" data-name="Layer 2"><g id="Layer_1-2" data-name="Layer 1"><path class="cls-1" d="M0,15.51v8.68a7.09,7.09,0,0,0,7.09,7.09,7.59,7.59,0,0,0,3.58-1,6.62,6.62,0,0,1-3.3-5.93,6.89,6.89,0,0,1,3.79-6.16,7.12,7.12,0,0,1,0-.73,7.86,7.86,0,0,1,.25-2Z"/><path class="cls-2" d="M1.87,24.19V15.51H0v8.68a7.09,7.09,0,0,0,7.09,7.09A6.59,6.59,0,0,0,8,31.21a7.09,7.09,0,0,1-6.13-7"/><path class="cls-3" d="M11.24,15.7a6.37,6.37,0,0,1,2.93-3.95V7.09A7.09,7.09,0,1,0,0,7.09V15.7Z"/><path class="cls-1" d="M8,.06A7.2,7.2,0,0,0,7.09,0,7.09,7.09,0,0,0,0,7.09V15.7H1.87V7.09A7.09,7.09,0,0,1,8,.06"/><path class="cls-4" d="M20.83,24.38a6.89,6.89,0,1,1-6.89-6.89,6.89,6.89,0,0,1,6.89,6.89"/><path class="cls-5" d="M9,24.38a6.89,6.89,0,0,1,5.94-6.83,6.89,6.89,0,1,0,0,13.65A6.89,6.89,0,0,1,9,24.38"/><path class="cls-5" d="M19.16,24.38a5.22,5.22,0,1,1-5.22-5.22,5.22,5.22,0,0,1,5.22,5.22"/><path class="cls-6" d="M13.94,29.6V19.17a5.22,5.22,0,1,0,0,10.43"/><path class="cls-7" d="M10.63,24.38a5.84,5.84,0,0,1,3.21-5.21,5.21,5.21,0,0,0,0,10.43,5.84,5.84,0,0,1-3.21-5.21"/><path class="cls-8" d="M24.59,17.49A6.89,6.89,0,1,1,17.7,10.6a6.89,6.89,0,0,1,6.89,6.89"/><path class="cls-9" d="M12.71,17.49a6.89,6.89,0,0,1,5.94-6.83,6.89,6.89,0,1,0,0,13.65,6.89,6.89,0,0,1-5.94-6.83"/><path class="cls-9" d="M22.91,17.49a5.22,5.22,0,1,1-5.22-5.22,5.22,5.22,0,0,1,5.22,5.22"/><path class="cls-10" d="M17.7,22.7V12.27a5.22,5.22,0,0,0,0,10.43"/><path class="cls-11" d="M14.38,17.49a5.9,5.9,0,0,1,3.13-5.21,5.21,5.21,0,0,0,0,10.42,5.9,5.9,0,0,1-3.13-5.21"/></g></g></svg>